<svg width="375" height="77" viewBox="0 0 375 77" fill="none" xmlns="http://www.w3.org/2000/svg">
<g clip-path="url(#clip0_1338_2118)">
<path d="M13.967 41.2427C12.714 41.2427 3.99156 40.9049 0.0371094 40.7491V22.931C0.0371094 19.011 3.21556 15.8325 7.13582 15.8325H23.0083C23.0083 15.762 23.0012 15.6936 23.0083 15.6225L23.6129 9.58253C23.678 7.20692 25.6299 5.29492 28.0202 5.29492H41.0122C43.4023 5.29492 45.3538 7.20692 45.4194 9.58253L46.0242 15.6225C46.0307 15.6936 46.0242 15.762 46.0242 15.8325H63.0338C66.9558 15.8325 70.1344 19.011 70.1344 22.931V40.5927C66.1629 40.4362 57.6127 40.105 56.2592 40.1012C56.2045 40.0987 56.1654 40.0916 56.1161 40.0876C54.8196 39.9872 54.6085 39.4916 54.4794 38.4193C54.4118 37.858 54.8747 36.8135 55.3176 36.0249C55.4274 35.8273 55.5369 35.6434 55.6345 35.4903L55.6427 35.4954C56.0978 34.8299 56.3389 34.0503 56.3389 33.2412C56.3389 31.0392 54.5487 29.2483 52.3451 29.2483C50.1443 29.2483 48.353 31.0392 48.353 33.2412C48.353 34.0477 48.5929 34.8247 49.0465 35.489L49.0491 35.4869C49.1483 35.6402 49.2578 35.8258 49.3685 36.0247C49.8107 36.8134 50.272 37.8579 50.2042 38.4192C50.0766 39.4914 49.8671 39.9871 48.5696 40.0874C48.5185 40.0914 48.4769 40.0992 48.422 40.1018C46.7858 40.1129 37.9901 40.5314 35.6341 40.6442C35.5024 38.8579 35.1074 33.3414 35.1074 31.9894H35.1047C34.9914 29.8596 33.9353 29.2963 32.3832 29.1099C31.2762 28.9794 29.6685 29.8465 28.9793 30.2565C28.8243 30.3491 28.7006 30.426 28.657 30.454L28.6456 30.4656C28.1781 30.7846 27.6312 30.9534 27.0639 30.9534C25.5152 30.9534 24.2547 29.6925 24.2547 28.1428C24.2547 26.594 25.5152 25.3332 27.0639 25.3332C27.6344 25.3332 28.1828 25.5027 28.6496 25.8228L28.657 25.8398C28.7011 25.8682 28.8258 25.946 28.9833 26.0397C29.6276 26.4237 31.0584 27.1976 32.146 27.1976C32.2272 27.1976 32.3061 27.1931 32.3832 27.184C33.9407 26.9971 34.9994 26.4031 35.1074 24.2558C35.1074 22.9512 35.4765 17.7881 35.6197 15.8323H41.8081L41.2147 9.91428C41.2082 9.84447 41.2042 9.77479 41.2042 9.70434C41.2042 9.59815 41.1183 9.51144 41.0125 9.51144H28.0201C27.914 9.51144 27.828 9.59815 27.828 9.70434C27.828 9.77479 27.8246 9.84447 27.8175 9.91428L27.225 15.8323H34.4331C34.2858 17.8532 33.929 22.8535 33.9251 24.2283C33.9218 24.2824 33.9147 24.3242 33.9109 24.3744C33.8098 25.6709 33.3143 25.8809 32.242 26.0094C31.6734 26.0771 30.6336 25.6141 29.8468 25.1729C29.6499 25.0628 29.4656 24.9539 29.3122 24.8549L29.3181 24.8464C28.6531 24.3914 27.8731 24.1507 27.0636 24.1507C24.8621 24.1507 23.0716 25.9415 23.0716 28.1428C23.0716 30.345 24.8623 32.136 27.0636 32.136C27.8703 32.136 28.6472 31.8967 29.3116 31.4436L29.3095 31.4403C29.4634 31.3412 29.6485 31.2318 29.8467 31.1209C30.6343 30.6801 31.6734 30.218 32.2419 30.2843C33.3141 30.413 33.8096 30.6228 33.9108 31.9193C33.9147 31.9709 33.9224 32.0127 33.925 32.0673C33.9369 33.5694 34.318 38.8935 34.4509 40.7012C32.037 40.8166 23.0753 41.2416 21.6704 41.2416V41.245C19.5416 41.3575 18.9785 42.4139 18.7914 43.9652C18.6578 45.0723 19.5261 46.6801 19.9374 47.3691C20.0298 47.5242 20.1068 47.6487 20.1356 47.6923L20.1474 47.7027C20.4661 48.1701 20.6349 48.7171 20.6349 49.285C20.6349 50.834 19.374 52.0947 17.8245 52.0947C16.2754 52.0947 15.0147 50.8339 15.0147 49.285C15.0147 48.7158 15.1841 48.1669 15.5049 47.6983L15.5209 47.6925C15.5496 47.6481 15.6274 47.5223 15.7216 47.3651C16.1335 46.6735 16.9987 45.0703 16.8656 43.9661C16.679 42.409 16.1144 41.3495 13.967 41.2427Z" fill="#4338CA"/>
<path d="M56.2046 41.2822C54.0581 41.1759 53.4923 40.1172 53.3046 38.5598C53.1721 37.4541 54.0375 35.8503 54.4499 35.1595C54.5436 35.0021 54.6218 34.8772 54.6503 34.8327L54.666 34.8256C54.9869 34.3582 55.1565 33.8098 55.1565 33.2401C55.1565 31.6906 53.8956 30.4297 52.3452 30.4297C50.7962 30.4297 49.5366 31.6906 49.5366 33.2401C49.5366 33.8074 49.7051 34.3542 50.0245 34.8217L50.0347 34.8327C50.0634 34.8764 50.1416 35.0004 50.2328 35.1554C50.645 35.8438 51.5135 37.4514 51.3802 38.5596C51.1926 40.1111 50.6292 41.1672 48.5014 41.2794V41.2827C47.0961 41.2827 38.1359 41.7076 35.7211 41.8231C35.8544 43.6303 36.2349 48.9538 36.2468 50.4569H36.2483C36.2509 50.5118 36.2585 50.5534 36.261 50.6049C36.3628 51.9016 36.8584 52.1115 37.9301 52.2407C38.4858 52.3092 39.5651 51.8201 40.3212 51.4028C40.5328 51.287 40.7218 51.1755 40.8623 51.0841L40.8611 51.0809C41.5258 50.6284 42.3032 50.3893 43.1088 50.3893C45.3096 50.3893 47.101 52.18 47.101 54.3814C47.101 56.583 45.3095 58.3738 43.1088 58.3738C42.2979 58.3738 41.5181 58.1333 40.8534 57.6769L40.8583 57.6698C40.7061 57.5714 40.5223 57.4623 40.3252 57.3515C39.5338 56.9084 38.4856 56.4403 37.93 56.5152C36.8583 56.6443 36.3628 56.8542 36.2609 58.1502C36.2584 58.201 36.2508 58.2422 36.2482 58.2964C36.2427 59.6738 35.8855 64.6889 35.7384 66.7034H63.0336C66.9557 66.7034 70.1343 63.5253 70.1343 59.6047V41.7756C66.1787 41.6198 57.4873 41.283 56.2331 41.283L56.2046 41.2822ZM41.5157 52.0706C41.4712 52.0994 41.3487 52.1755 41.1922 52.2688C40.5507 52.6521 39.1163 53.4293 38.0265 53.4293C37.9459 53.4293 37.8664 53.4247 37.7894 53.4156C36.2376 53.2285 35.1818 52.6654 35.0683 50.5361H35.0656C35.0656 49.184 34.6704 43.667 34.5388 41.8807C32.1834 41.9936 23.3854 42.4114 21.7495 42.4225C21.695 42.4252 21.653 42.4334 21.6016 42.4374C20.3063 42.5385 20.0958 43.0345 19.9668 44.1068C19.899 44.6674 20.3618 45.7112 20.803 46.5007C20.9138 46.6988 21.0234 46.8847 21.1225 47.0377L21.1259 47.0359C21.5787 47.7001 21.8181 48.4778 21.8181 49.2843C21.8181 51.4858 20.0276 53.2765 17.8251 53.2765C15.6237 53.2765 13.8329 51.4858 13.8329 49.2843C13.8329 48.4751 14.0735 47.6955 14.5291 47.0299L14.537 47.0352C14.6356 46.8819 14.7441 46.6974 14.8544 46.5007C15.2957 45.7111 15.7587 44.6667 15.6914 44.1062C15.563 43.0338 15.3532 42.5383 14.0563 42.4373C14.0068 42.4333 13.9665 42.4262 13.913 42.4236C12.5589 42.4196 4.00717 42.0884 0.0371094 41.932V59.6047C0.0371094 63.5253 3.21556 66.7034 7.13582 66.7034H34.5519C34.694 64.7547 35.0656 59.5761 35.0656 58.2689L35.067 58.2395C35.1727 56.0928 36.2322 55.5283 37.7894 55.3407C38.8975 55.2096 40.4988 56.0739 41.1899 56.4854C41.346 56.5791 41.4713 56.6569 41.5157 56.6857L41.5234 56.7018C41.9904 57.0219 42.5379 57.1915 43.109 57.1915C44.658 57.1915 45.9176 55.9307 45.9176 54.3817C45.9176 52.8328 44.658 51.5721 43.109 51.5721C42.5405 51.5721 41.994 51.741 41.5259 52.059L41.5157 52.0706Z" fill="#4F46E5" fill-opacity="0.9"/>
<path d="M127.68 15.4551V62.0006H122.226L96.8624 25.4551H96.4079V62.0006H90.7715V15.4551H96.2261L121.68 52.0915H122.135V15.4551H127.68ZM152.868 62.7279C149.504 62.7279 146.603 61.9854 144.163 60.5006C141.739 59.0006 139.868 56.9097 138.55 54.2279C137.247 51.5309 136.595 48.3945 136.595 44.8188C136.595 41.243 137.247 38.0915 138.55 35.3642C139.868 32.6218 141.701 30.4854 144.05 28.9551C146.413 27.4097 149.171 26.637 152.322 26.637C154.14 26.637 155.936 26.94 157.709 27.5461C159.481 28.1521 161.095 29.137 162.55 30.5006C164.004 31.8491 165.163 33.637 166.027 35.8642C166.89 38.0915 167.322 40.8339 167.322 44.0915V46.3642H140.413V41.7279H161.868C161.868 39.7582 161.474 38.0006 160.686 36.4551C159.913 34.9097 158.807 33.69 157.368 32.7961C155.943 31.9021 154.262 31.4551 152.322 31.4551C150.186 31.4551 148.337 31.9854 146.777 33.0461C145.231 34.0915 144.042 35.4551 143.209 37.137C142.375 38.8188 141.959 40.6218 141.959 42.5461V45.637C141.959 48.2733 142.413 50.5082 143.322 52.3415C144.247 54.1597 145.527 55.5461 147.163 56.5006C148.8 57.44 150.701 57.9097 152.868 57.9097C154.277 57.9097 155.55 57.7127 156.686 57.3188C157.837 56.9097 158.83 56.3036 159.663 55.5006C160.497 54.6824 161.14 53.6673 161.595 52.4551L166.777 53.9097C166.231 55.6673 165.315 57.2127 164.027 58.5461C162.739 59.8642 161.148 60.8945 159.254 61.637C157.36 62.3642 155.231 62.7279 152.868 62.7279ZM178.544 27.0915L186.907 41.3642L195.271 27.0915H201.453L190.18 44.5461L201.453 62.0006H195.271L186.907 48.4551L178.544 62.0006H172.362L183.453 44.5461L172.362 27.0915H178.544ZM224.288 27.0915V31.637H206.197V27.0915H224.288ZM211.47 18.7279H216.834V52.0006C216.834 53.5158 217.053 54.6521 217.493 55.4097C217.947 56.1521 218.523 56.6521 219.22 56.9097C219.932 57.1521 220.682 57.2733 221.47 57.2733C222.061 57.2733 222.546 57.243 222.925 57.1824C223.303 57.1067 223.606 57.0461 223.834 57.0006L224.925 61.8188C224.561 61.9551 224.053 62.0915 223.402 62.2279C222.75 62.3794 221.925 62.4551 220.925 62.4551C219.409 62.4551 217.925 62.1294 216.47 61.4779C215.031 60.8264 213.834 59.8339 212.879 58.5006C211.94 57.1673 211.47 55.4854 211.47 53.4551V18.7279ZM250.902 15.4551H256.538V48.7279C256.538 51.6976 255.993 54.2203 254.902 56.2961C253.811 58.3718 252.273 59.9476 250.288 61.0233C248.303 62.0991 245.962 62.637 243.265 62.637C240.72 62.637 238.455 62.1748 236.47 61.2506C234.485 60.3112 232.925 58.9779 231.788 57.2506C230.652 55.5233 230.084 53.4703 230.084 51.0915H235.629C235.629 52.4097 235.955 53.5612 236.606 54.5461C237.273 55.5158 238.182 56.2733 239.334 56.8188C240.485 57.3642 241.796 57.637 243.265 57.637C244.887 57.637 246.265 57.2961 247.402 56.6142C248.538 55.9324 249.402 54.9324 249.993 53.6142C250.599 52.2809 250.902 50.6521 250.902 48.7279V15.4551ZM281.288 62.7279C278.137 62.7279 275.372 61.9779 272.993 60.4779C270.629 58.9779 268.781 56.8794 267.447 54.1824C266.129 51.4854 265.47 48.3339 265.47 44.7279C265.47 41.0915 266.129 37.9173 267.447 35.2051C268.781 32.493 270.629 30.387 272.993 28.887C275.372 27.387 278.137 26.637 281.288 26.637C284.44 26.637 287.197 27.387 289.561 28.887C291.94 30.387 293.788 32.493 295.106 35.2051C296.44 37.9173 297.106 41.0915 297.106 44.7279C297.106 48.3339 296.44 51.4854 295.106 54.1824C293.788 56.8794 291.94 58.9779 289.561 60.4779C287.197 61.9779 284.44 62.7279 281.288 62.7279ZM281.288 57.9097C283.682 57.9097 285.652 57.2961 287.197 56.0688C288.743 54.8415 289.887 53.2279 290.629 51.2279C291.372 49.2279 291.743 47.0612 291.743 44.7279C291.743 42.3945 291.372 40.2203 290.629 38.2051C289.887 36.19 288.743 34.5612 287.197 33.3188C285.652 32.0764 283.682 31.4551 281.288 31.4551C278.894 31.4551 276.925 32.0764 275.379 33.3188C273.834 34.5612 272.69 36.19 271.947 38.2051C271.205 40.2203 270.834 42.3945 270.834 44.7279C270.834 47.0612 271.205 49.2279 271.947 51.2279C272.69 53.2279 273.834 54.8415 275.379 56.0688C276.925 57.2961 278.894 57.9097 281.288 57.9097ZM306.021 62.0006V15.4551H311.385V32.637H311.839C312.233 32.0309 312.779 31.2582 313.476 30.3188C314.188 29.3642 315.203 28.5158 316.521 27.7733C317.854 27.0158 319.657 26.637 321.93 26.637C324.87 26.637 327.461 27.3718 329.703 28.8415C331.945 30.3112 333.695 32.3945 334.953 35.0915C336.211 37.7885 336.839 40.9703 336.839 44.637C336.839 48.3339 336.211 51.5385 334.953 54.2506C333.695 56.9476 331.953 59.0385 329.726 60.5233C327.498 61.993 324.93 62.7279 322.021 62.7279C319.779 62.7279 317.983 62.3567 316.635 61.6142C315.286 60.8567 314.248 60.0006 313.521 59.0461C312.794 58.0764 312.233 57.2733 311.839 56.637H311.203V62.0006H306.021ZM311.294 44.5461C311.294 47.1824 311.68 49.5082 312.453 51.5233C313.226 53.5233 314.354 55.0915 315.839 56.2279C317.324 57.3491 319.142 57.9097 321.294 57.9097C323.536 57.9097 325.407 57.3188 326.907 56.137C328.423 54.94 329.559 53.3339 330.317 51.3188C331.089 49.2885 331.476 47.0309 331.476 44.5461C331.476 42.0915 331.097 39.8794 330.339 37.9097C329.597 35.9248 328.468 34.3567 326.953 33.2051C325.453 32.0385 323.567 31.4551 321.294 31.4551C319.112 31.4551 317.279 32.0082 315.794 33.1142C314.309 34.2051 313.188 35.7354 312.43 37.7051C311.673 39.6597 311.294 41.94 311.294 44.5461ZM369.771 34.9097L364.953 36.2733C364.65 35.4703 364.203 34.69 363.612 33.9324C363.036 33.1597 362.248 32.5233 361.248 32.0233C360.248 31.5233 358.968 31.2733 357.407 31.2733C355.271 31.2733 353.491 31.7658 352.067 32.7506C350.657 33.7203 349.953 34.9551 349.953 36.4551C349.953 37.7885 350.438 38.8415 351.407 39.6142C352.377 40.387 353.892 41.0309 355.953 41.5461L361.135 42.8188C364.256 43.5764 366.582 44.7354 368.112 46.2961C369.642 47.8415 370.407 49.8339 370.407 52.2733C370.407 54.2733 369.832 56.0612 368.68 57.637C367.544 59.2127 365.953 60.4551 363.907 61.3642C361.862 62.2733 359.483 62.7279 356.771 62.7279C353.211 62.7279 350.264 61.9551 347.93 60.4097C345.597 58.8642 344.12 56.6067 343.498 53.637L348.589 52.3642C349.074 54.243 349.991 55.6521 351.339 56.5915C352.703 57.5309 354.483 58.0006 356.68 58.0006C359.18 58.0006 361.165 57.4703 362.635 56.4097C364.12 55.3339 364.862 54.0461 364.862 52.5461C364.862 51.3339 364.438 50.3188 363.589 49.5006C362.741 48.6673 361.438 48.0461 359.68 47.637L353.862 46.2733C350.665 45.5158 348.317 44.3415 346.817 42.7506C345.332 41.1445 344.589 39.137 344.589 36.7279C344.589 34.7582 345.142 33.0158 346.248 31.5006C347.37 29.9854 348.892 28.7961 350.817 27.9324C352.756 27.0688 354.953 26.637 357.407 26.637C360.862 26.637 363.574 27.3945 365.544 28.9097C367.529 30.4248 368.938 32.4248 369.771 34.9097Z" fill="#4338CA"/>
<path d="M128.545 15.4545V62H123.091L97.7273 25.4545H97.2727V62H91.6364V15.4545H97.0909L122.545 52.0909H123V15.4545H128.545ZM153.733 62.7273C150.369 62.7273 147.468 61.9848 145.028 60.5C142.604 59 140.733 56.9091 139.415 54.2273C138.112 51.5303 137.46 48.3939 137.46 44.8182C137.46 41.2424 138.112 38.0909 139.415 35.3636C140.733 32.6212 142.566 30.4848 144.915 28.9545C147.278 27.4091 150.036 26.6364 153.188 26.6364C155.006 26.6364 156.801 26.9394 158.574 27.5455C160.347 28.1515 161.96 29.1364 163.415 30.5C164.869 31.8485 166.028 33.6364 166.892 35.8636C167.756 38.0909 168.188 40.8333 168.188 44.0909V46.3636H141.278V41.7273H162.733C162.733 39.7576 162.339 38 161.551 36.4545C160.778 34.9091 159.672 33.6894 158.233 32.7955C156.809 31.9015 155.127 31.4545 153.188 31.4545C151.051 31.4545 149.203 31.9848 147.642 33.0455C146.097 34.0909 144.907 35.4545 144.074 37.1364C143.241 38.8182 142.824 40.6212 142.824 42.5455V45.6364C142.824 48.2727 143.278 50.5076 144.188 52.3409C145.112 54.1591 146.392 55.5455 148.028 56.5C149.665 57.4394 151.566 57.9091 153.733 57.9091C155.142 57.9091 156.415 57.7121 157.551 57.3182C158.703 56.9091 159.695 56.303 160.528 55.5C161.362 54.6818 162.006 53.6667 162.46 52.4545L167.642 53.9091C167.097 55.6667 166.18 57.2121 164.892 58.5455C163.604 59.8636 162.013 60.8939 160.119 61.6364C158.225 62.3636 156.097 62.7273 153.733 62.7273ZM179.409 27.0909L187.773 41.3636L196.136 27.0909H202.318L191.045 44.5455L202.318 62H196.136L187.773 48.4545L179.409 62H173.227L184.318 44.5455L173.227 27.0909H179.409ZM225.153 27.0909V31.6364H207.062V27.0909H225.153ZM212.335 18.7273H217.699V52C217.699 53.5152 217.919 54.6515 218.358 55.4091C218.813 56.1515 219.388 56.6515 220.085 56.9091C220.797 57.1515 221.547 57.2727 222.335 57.2727C222.926 57.2727 223.411 57.2424 223.79 57.1818C224.169 57.1061 224.472 57.0455 224.699 57L225.79 61.8182C225.426 61.9545 224.919 62.0909 224.267 62.2273C223.616 62.3788 222.79 62.4545 221.79 62.4545C220.275 62.4545 218.79 62.1288 217.335 61.4773C215.896 60.8258 214.699 59.8333 213.744 58.5C212.805 57.1667 212.335 55.4848 212.335 53.4545V18.7273ZM251.767 15.4545H257.403V48.7273C257.403 51.697 256.858 54.2197 255.767 56.2955C254.676 58.3712 253.138 59.947 251.153 61.0227C249.169 62.0985 246.828 62.6364 244.131 62.6364C241.585 62.6364 239.32 62.1742 237.335 61.25C235.35 60.3106 233.79 58.9773 232.653 57.25C231.517 55.5227 230.949 53.4697 230.949 51.0909H236.494C236.494 52.4091 236.82 53.5606 237.472 54.5455C238.138 55.5152 239.047 56.2727 240.199 56.8182C241.35 57.3636 242.661 57.6364 244.131 57.6364C245.752 57.6364 247.131 57.2955 248.267 56.6136C249.403 55.9318 250.267 54.9318 250.858 53.6136C251.464 52.2803 251.767 50.6515 251.767 48.7273V15.4545ZM282.153 62.7273C279.002 62.7273 276.237 61.9773 273.858 60.4773C271.494 58.9773 269.646 56.8788 268.312 54.1818C266.994 51.4848 266.335 48.3333 266.335 44.7273C266.335 41.0909 266.994 37.9167 268.312 35.2045C269.646 32.4924 271.494 30.3864 273.858 28.8864C276.237 27.3864 279.002 26.6364 282.153 26.6364C285.305 26.6364 288.063 27.3864 290.426 28.8864C292.805 30.3864 294.653 32.4924 295.972 35.2045C297.305 37.9167 297.972 41.0909 297.972 44.7273C297.972 48.3333 297.305 51.4848 295.972 54.1818C294.653 56.8788 292.805 58.9773 290.426 60.4773C288.063 61.9773 285.305 62.7273 282.153 62.7273ZM282.153 57.9091C284.547 57.9091 286.517 57.2955 288.062 56.0682C289.608 54.8409 290.752 53.2273 291.494 51.2273C292.237 49.2273 292.608 47.0606 292.608 44.7273C292.608 42.3939 292.237 40.2197 291.494 38.2045C290.752 36.1894 289.608 34.5606 288.062 33.3182C286.517 32.0758 284.547 31.4545 282.153 31.4545C279.759 31.4545 277.79 32.0758 276.244 33.3182C274.699 34.5606 273.555 36.1894 272.812 38.2045C272.07 40.2197 271.699 42.3939 271.699 44.7273C271.699 47.0606 272.07 49.2273 272.812 51.2273C273.555 53.2273 274.699 54.8409 276.244 56.0682C277.79 57.2955 279.759 57.9091 282.153 57.9091ZM306.886 62V15.4545H312.25V32.6364H312.705C313.098 32.0303 313.644 31.2576 314.341 30.3182C315.053 29.3636 316.068 28.5152 317.386 27.7727C318.72 27.0152 320.523 26.6364 322.795 26.6364C325.735 26.6364 328.326 27.3712 330.568 28.8409C332.811 30.3106 334.561 32.3939 335.818 35.0909C337.076 37.7879 337.705 40.9697 337.705 44.6364C337.705 48.3333 337.076 51.5379 335.818 54.25C334.561 56.947 332.818 59.0379 330.591 60.5227C328.364 61.9924 325.795 62.7273 322.886 62.7273C320.644 62.7273 318.848 62.3561 317.5 61.6136C316.152 60.8561 315.114 60 314.386 59.0455C313.659 58.0758 313.098 57.2727 312.705 56.6364H312.068V62H306.886ZM312.159 44.5455C312.159 47.1818 312.545 49.5076 313.318 51.5227C314.091 53.5227 315.22 55.0909 316.705 56.2273C318.189 57.3485 320.008 57.9091 322.159 57.9091C324.402 57.9091 326.273 57.3182 327.773 56.1364C329.288 54.9394 330.424 53.3333 331.182 51.3182C331.955 49.2879 332.341 47.0303 332.341 44.5455C332.341 42.0909 331.962 39.8788 331.205 37.9091C330.462 35.9242 329.333 34.3561 327.818 33.2045C326.318 32.0379 324.432 31.4545 322.159 31.4545C319.977 31.4545 318.144 32.0076 316.659 33.1136C315.174 34.2045 314.053 35.7348 313.295 37.7045C312.538 39.6591 312.159 41.9394 312.159 44.5455ZM370.636 34.9091L365.818 36.2727C365.515 35.4697 365.068 34.6894 364.477 33.9318C363.902 33.1591 363.114 32.5227 362.114 32.0227C361.114 31.5227 359.833 31.2727 358.273 31.2727C356.136 31.2727 354.356 31.7652 352.932 32.75C351.523 33.7197 350.818 34.9545 350.818 36.4545C350.818 37.7879 351.303 38.8409 352.273 39.6136C353.242 40.3864 354.758 41.0303 356.818 41.5455L362 42.8182C365.121 43.5758 367.447 44.7348 368.977 46.2955C370.508 47.8409 371.273 49.8333 371.273 52.2727C371.273 54.2727 370.697 56.0606 369.545 57.6364C368.409 59.2121 366.818 60.4545 364.773 61.3636C362.727 62.2727 360.348 62.7273 357.636 62.7273C354.076 62.7273 351.129 61.9545 348.795 60.4091C346.462 58.8636 344.985 56.6061 344.364 53.6364L349.455 52.3636C349.939 54.2424 350.856 55.6515 352.205 56.5909C353.568 57.5303 355.348 58 357.545 58C360.045 58 362.03 57.4697 363.5 56.4091C364.985 55.3333 365.727 54.0455 365.727 52.5455C365.727 51.3333 365.303 50.3182 364.455 49.5C363.606 48.6667 362.303 48.0455 360.545 47.6364L354.727 46.2727C351.53 45.5152 349.182 44.3409 347.682 42.75C346.197 41.1439 345.455 39.1364 345.455 36.7273C345.455 34.7576 346.008 33.0152 347.114 31.5C348.235 29.9848 349.758 28.7955 351.682 27.9318C353.621 27.0682 355.818 26.6364 358.273 26.6364C361.727 26.6364 364.439 27.3939 366.409 28.9091C368.394 30.4242 369.803 32.4242 370.636 34.9091Z" fill="#4F46E5"/>
</g>
<defs>
<clipPath id="clip0_1338_2118">
<rect width="375" height="77" fill="white"/>
</clipPath>
</defs>
</svg>
